<?xml version="1.0" standalone="no"?>
<!DOCTYPE svg PUBLIC "-//W3C//DTD SVG 20010904//EN"
 "http://www.w3.org/TR/2001/REC-SVG-20010904/DTD/svg10.dtd">
<svg version="1.0" xmlns="http://www.w3.org/2000/svg"
 width="700.000000pt" height="700.000000pt" viewBox="0 0 700.000000 700.000000"
 preserveAspectRatio="xMidYMid meet">
<metadata>
Created by potrace 1.11, written by Peter Selinger 2001-2013
</metadata>
<g transform="translate(0.000000,700.000000) scale(0.100000,-0.100000)"
fill="#000000" stroke="none">
<path d="M472 6985 c-173 -41 -330 -169 -407 -329 -24 -50 -48 -115 -54 -144
-8 -37 -11 -926 -11 -3015 0 -3254 -4 -3017 61 -3151 62 -128 155 -221 286
-285 132 -66 -109 -62 3170 -59 2865 3 2980 4 3033 21 211 71 363 225 427 432
17 58 18 175 18 3050 l0 2990 -22 70 c-59 188 -212 342 -403 408 l-65 22
-2990 2 c-2413 1 -3000 -1 -3043 -12z m4193 -3485 l0 -1170 -1162 0 -1163 0 0
1170 0 1170 1163 0 1162 0 0 -1170z"/>
<path d="M3098 3507 c-63 -52 -57 -115 20 -189 173 -169 456 -200 670 -73 66
39 136 108 152 149 23 63 -32 136 -104 136 -27 0 -48 -10 -91 -45 -103 -84
-185 -110 -300 -94 -67 9 -116 33 -190 94 -66 53 -112 60 -157 22z"/>
</g>
</svg>
